<?xml version="1.0" encoding="UTF-8"?>
<svg xmlns="http://www.w3.org/2000/svg" version="1.1" viewBox="0 0 50 50">
  <defs>
    <style>
      .cls-1 {
        fill: #b2b2b2;
      }
    </style>
  </defs>
  <!-- Generator: Adobe Illustrator 28.7.1, SVG Export Plug-In . SVG Version: 1.2.0 Build 142)  -->
  <g>
    <g id="_Слой_2" data-name="Слой_2">
      <path class="cls-1" d="M27.95,22.09l12.68-8.43s2.32-1.35,0-3.51L28.9,2.14s-1.85-1.01-2.99,1.42v3.91S8.75,6.18,5.13,26c0,0,.29,17.05,17.54,19.28,0,0,20.15,3.57,23.84-17.12,0,0-.07-1.35-1.52-1.48l-5.77-.04s-2.25.07-2.78,2.04c0,0-1.79,8.18-11.21,8,0,0-11.69-1.3-9.81-12.31,0,0,1.22-7.01,10.49-7.86l-.09,3.95s.28,1.39,2.14,1.64Z"/>
    </g>
  </g>
</svg>